<mxfile host="app.diagrams.net" modified="2023-11-16T06:02:42.998Z" agent="Mozilla/5.0 (Windows NT 10.0; Win64; x64) AppleWebKit/537.36 (KHTML, like Gecko) Chrome/119.0.0.0 Safari/537.36" etag="8E7cpqj0_M3TaqvbNnZO" version="22.1.2" type="github">
  <diagram id="C5RBs43oDa-KdzZeNtuy" name="Page-1">
    <mxGraphModel dx="1983" dy="1079" grid="1" gridSize="10" guides="1" tooltips="1" connect="1" arrows="1" fold="1" page="1" pageScale="1" pageWidth="2336" pageHeight="1654" math="0" shadow="0">
      <root>
        <mxCell id="WIyWlLk6GJQsqaUBKTNV-0" />
        <mxCell id="WIyWlLk6GJQsqaUBKTNV-1" parent="WIyWlLk6GJQsqaUBKTNV-0" />
        <mxCell id="WIyWlLk6GJQsqaUBKTNV-2" value="" style="rounded=0;html=1;jettySize=auto;orthogonalLoop=1;fontSize=11;endArrow=block;endFill=0;endSize=8;strokeWidth=1;shadow=0;labelBackgroundColor=none;edgeStyle=orthogonalEdgeStyle;" parent="WIyWlLk6GJQsqaUBKTNV-1" source="WIyWlLk6GJQsqaUBKTNV-3" target="WIyWlLk6GJQsqaUBKTNV-6" edge="1">
          <mxGeometry relative="1" as="geometry" />
        </mxCell>
        <mxCell id="WIyWlLk6GJQsqaUBKTNV-3" value="셀 수정" style="rounded=1;whiteSpace=wrap;html=1;fontSize=12;glass=0;strokeWidth=1;shadow=0;" parent="WIyWlLk6GJQsqaUBKTNV-1" vertex="1">
          <mxGeometry x="900" y="80" width="120" height="40" as="geometry" />
        </mxCell>
        <mxCell id="WIyWlLk6GJQsqaUBKTNV-6" value="행 데이터 가져오기" style="rhombus;whiteSpace=wrap;html=1;shadow=0;fontFamily=Helvetica;fontSize=12;align=center;strokeWidth=1;spacing=6;spacingTop=-4;" parent="WIyWlLk6GJQsqaUBKTNV-1" vertex="1">
          <mxGeometry x="890" y="170" width="140" height="80" as="geometry" />
        </mxCell>
        <mxCell id="oHkGhMjI6xXn3DW6WMqZ-0" value="변경된 셀 level 확인" style="rhombus;whiteSpace=wrap;html=1;shadow=0;fontFamily=Helvetica;fontSize=12;align=center;strokeWidth=1;spacing=6;spacingTop=-4;" vertex="1" parent="WIyWlLk6GJQsqaUBKTNV-1">
          <mxGeometry x="890" y="298" width="140" height="80" as="geometry" />
        </mxCell>
        <mxCell id="oHkGhMjI6xXn3DW6WMqZ-1" value="" style="rounded=0;html=1;jettySize=auto;orthogonalLoop=1;fontSize=11;endArrow=block;endFill=0;endSize=8;strokeWidth=1;shadow=0;labelBackgroundColor=none;edgeStyle=orthogonalEdgeStyle;" edge="1" parent="WIyWlLk6GJQsqaUBKTNV-1">
          <mxGeometry relative="1" as="geometry">
            <mxPoint x="960" y="249" as="sourcePoint" />
            <mxPoint x="960" y="299" as="targetPoint" />
          </mxGeometry>
        </mxCell>
        <mxCell id="oHkGhMjI6xXn3DW6WMqZ-2" value="level &amp;gt; 1&lt;br&gt;(자식 노드 O)" style="rhombus;whiteSpace=wrap;html=1;shadow=0;fontFamily=Helvetica;fontSize=12;align=center;strokeWidth=1;spacing=6;spacingTop=-4;" vertex="1" parent="WIyWlLk6GJQsqaUBKTNV-1">
          <mxGeometry x="530" y="450" width="140" height="80" as="geometry" />
        </mxCell>
        <mxCell id="oHkGhMjI6xXn3DW6WMqZ-4" value="" style="rounded=0;html=1;jettySize=auto;orthogonalLoop=1;fontSize=11;endArrow=block;endFill=0;endSize=8;strokeWidth=1;shadow=0;labelBackgroundColor=none;edgeStyle=orthogonalEdgeStyle;exitX=1;exitY=0;exitDx=0;exitDy=0;" edge="1" parent="WIyWlLk6GJQsqaUBKTNV-1">
          <mxGeometry relative="1" as="geometry">
            <mxPoint x="600" y="565" as="sourcePoint" />
            <mxPoint x="499.5" y="615" as="targetPoint" />
            <Array as="points">
              <mxPoint x="500" y="565" />
            </Array>
          </mxGeometry>
        </mxCell>
        <mxCell id="oHkGhMjI6xXn3DW6WMqZ-5" value="rate" style="rhombus;whiteSpace=wrap;html=1;shadow=0;fontFamily=Helvetica;fontSize=12;align=center;strokeWidth=1;spacing=6;spacingTop=-4;" vertex="1" parent="WIyWlLk6GJQsqaUBKTNV-1">
          <mxGeometry x="430" y="615" width="140" height="80" as="geometry" />
        </mxCell>
        <mxCell id="oHkGhMjI6xXn3DW6WMqZ-6" value="yes" style="text;html=1;strokeColor=none;fillColor=none;align=center;verticalAlign=middle;whiteSpace=wrap;rounded=0;" vertex="1" parent="WIyWlLk6GJQsqaUBKTNV-1">
          <mxGeometry x="590" y="530" width="60" height="30" as="geometry" />
        </mxCell>
        <mxCell id="oHkGhMjI6xXn3DW6WMqZ-9" value="" style="rounded=0;html=1;jettySize=auto;orthogonalLoop=1;fontSize=11;endArrow=block;endFill=0;endSize=8;strokeWidth=1;shadow=0;labelBackgroundColor=none;edgeStyle=orthogonalEdgeStyle;exitX=0.5;exitY=1;exitDx=0;exitDy=0;" edge="1" parent="WIyWlLk6GJQsqaUBKTNV-1">
          <mxGeometry relative="1" as="geometry">
            <mxPoint x="600" y="565" as="sourcePoint" />
            <mxPoint x="710" y="618" as="targetPoint" />
            <Array as="points">
              <mxPoint x="710" y="565" />
            </Array>
          </mxGeometry>
        </mxCell>
        <mxCell id="oHkGhMjI6xXn3DW6WMqZ-10" value="ceil" style="rhombus;whiteSpace=wrap;html=1;shadow=0;fontFamily=Helvetica;fontSize=12;align=center;strokeWidth=1;spacing=6;spacingTop=-4;" vertex="1" parent="WIyWlLk6GJQsqaUBKTNV-1">
          <mxGeometry x="640" y="617" width="140" height="80" as="geometry" />
        </mxCell>
        <mxCell id="oHkGhMjI6xXn3DW6WMqZ-11" value="" style="endArrow=none;html=1;rounded=0;endSize=5;" edge="1" parent="WIyWlLk6GJQsqaUBKTNV-1">
          <mxGeometry width="50" height="50" relative="1" as="geometry">
            <mxPoint x="600" y="567" as="sourcePoint" />
            <mxPoint x="600" y="527" as="targetPoint" />
          </mxGeometry>
        </mxCell>
        <mxCell id="oHkGhMjI6xXn3DW6WMqZ-58" value="" style="endArrow=none;html=1;rounded=0;" edge="1" parent="WIyWlLk6GJQsqaUBKTNV-1">
          <mxGeometry width="50" height="50" relative="1" as="geometry">
            <mxPoint x="960" y="440" as="sourcePoint" />
            <mxPoint x="960" y="380" as="targetPoint" />
          </mxGeometry>
        </mxCell>
        <mxCell id="oHkGhMjI6xXn3DW6WMqZ-59" value="" style="endArrow=none;html=1;rounded=0;" edge="1" parent="WIyWlLk6GJQsqaUBKTNV-1">
          <mxGeometry width="50" height="50" relative="1" as="geometry">
            <mxPoint x="599" y="449" as="sourcePoint" />
            <mxPoint x="599" y="399" as="targetPoint" />
          </mxGeometry>
        </mxCell>
        <mxCell id="oHkGhMjI6xXn3DW6WMqZ-60" value="" style="endArrow=none;html=1;rounded=0;" edge="1" parent="WIyWlLk6GJQsqaUBKTNV-1">
          <mxGeometry width="50" height="50" relative="1" as="geometry">
            <mxPoint x="1319" y="450" as="sourcePoint" />
            <mxPoint x="1319" y="400" as="targetPoint" />
          </mxGeometry>
        </mxCell>
        <mxCell id="oHkGhMjI6xXn3DW6WMqZ-61" value="" style="endArrow=none;html=1;rounded=0;" edge="1" parent="WIyWlLk6GJQsqaUBKTNV-1">
          <mxGeometry width="50" height="50" relative="1" as="geometry">
            <mxPoint x="600" y="400" as="sourcePoint" />
            <mxPoint x="1320" y="400" as="targetPoint" />
          </mxGeometry>
        </mxCell>
        <mxCell id="oHkGhMjI6xXn3DW6WMqZ-62" value="level == 3" style="rhombus;whiteSpace=wrap;html=1;shadow=0;fontFamily=Helvetica;fontSize=12;align=center;strokeWidth=1;spacing=6;spacingTop=-4;" vertex="1" parent="WIyWlLk6GJQsqaUBKTNV-1">
          <mxGeometry x="890" y="442" width="140" height="80" as="geometry" />
        </mxCell>
        <mxCell id="oHkGhMjI6xXn3DW6WMqZ-63" value="" style="rounded=0;html=1;jettySize=auto;orthogonalLoop=1;fontSize=11;endArrow=block;endFill=0;endSize=8;strokeWidth=1;shadow=0;labelBackgroundColor=none;edgeStyle=orthogonalEdgeStyle;exitX=1;exitY=0;exitDx=0;exitDy=0;entryX=0.5;entryY=0;entryDx=0;entryDy=0;" edge="1" parent="WIyWlLk6GJQsqaUBKTNV-1" target="oHkGhMjI6xXn3DW6WMqZ-64">
          <mxGeometry relative="1" as="geometry">
            <mxPoint x="960" y="559" as="sourcePoint" />
            <mxPoint x="859.5" y="609" as="targetPoint" />
            <Array as="points">
              <mxPoint x="860" y="559" />
            </Array>
          </mxGeometry>
        </mxCell>
        <mxCell id="oHkGhMjI6xXn3DW6WMqZ-64" value="rate" style="rhombus;whiteSpace=wrap;html=1;shadow=0;fontFamily=Helvetica;fontSize=12;align=center;strokeWidth=1;spacing=6;spacingTop=-4;" vertex="1" parent="WIyWlLk6GJQsqaUBKTNV-1">
          <mxGeometry x="790" y="614" width="140" height="80" as="geometry" />
        </mxCell>
        <mxCell id="oHkGhMjI6xXn3DW6WMqZ-65" value="yes" style="text;html=1;strokeColor=none;fillColor=none;align=center;verticalAlign=middle;whiteSpace=wrap;rounded=0;" vertex="1" parent="WIyWlLk6GJQsqaUBKTNV-1">
          <mxGeometry x="950" y="522" width="60" height="30" as="geometry" />
        </mxCell>
        <mxCell id="oHkGhMjI6xXn3DW6WMqZ-66" value="" style="rounded=0;html=1;jettySize=auto;orthogonalLoop=1;fontSize=11;endArrow=block;endFill=0;endSize=8;strokeWidth=1;shadow=0;labelBackgroundColor=none;edgeStyle=orthogonalEdgeStyle;exitX=0.5;exitY=1;exitDx=0;exitDy=0;entryX=0.5;entryY=0;entryDx=0;entryDy=0;" edge="1" parent="WIyWlLk6GJQsqaUBKTNV-1" target="oHkGhMjI6xXn3DW6WMqZ-67">
          <mxGeometry relative="1" as="geometry">
            <mxPoint x="960" y="559" as="sourcePoint" />
            <mxPoint x="1070" y="610" as="targetPoint" />
            <Array as="points">
              <mxPoint x="1070" y="559" />
            </Array>
          </mxGeometry>
        </mxCell>
        <mxCell id="oHkGhMjI6xXn3DW6WMqZ-67" value="ceil" style="rhombus;whiteSpace=wrap;html=1;shadow=0;fontFamily=Helvetica;fontSize=12;align=center;strokeWidth=1;spacing=6;spacingTop=-4;" vertex="1" parent="WIyWlLk6GJQsqaUBKTNV-1">
          <mxGeometry x="1000" y="616" width="140" height="80" as="geometry" />
        </mxCell>
        <mxCell id="oHkGhMjI6xXn3DW6WMqZ-68" value="" style="endArrow=none;html=1;rounded=0;endSize=5;" edge="1" parent="WIyWlLk6GJQsqaUBKTNV-1">
          <mxGeometry width="50" height="50" relative="1" as="geometry">
            <mxPoint x="960" y="559" as="sourcePoint" />
            <mxPoint x="960" y="519" as="targetPoint" />
          </mxGeometry>
        </mxCell>
        <mxCell id="oHkGhMjI6xXn3DW6WMqZ-69" value="level == 1" style="rhombus;whiteSpace=wrap;html=1;shadow=0;fontFamily=Helvetica;fontSize=12;align=center;strokeWidth=1;spacing=6;spacingTop=-4;" vertex="1" parent="WIyWlLk6GJQsqaUBKTNV-1">
          <mxGeometry x="1250" y="450" width="140" height="80" as="geometry" />
        </mxCell>
        <mxCell id="oHkGhMjI6xXn3DW6WMqZ-70" value="" style="rounded=0;html=1;jettySize=auto;orthogonalLoop=1;fontSize=11;endArrow=block;endFill=0;endSize=8;strokeWidth=1;shadow=0;labelBackgroundColor=none;edgeStyle=orthogonalEdgeStyle;exitX=1;exitY=0;exitDx=0;exitDy=0;" edge="1" parent="WIyWlLk6GJQsqaUBKTNV-1">
          <mxGeometry relative="1" as="geometry">
            <mxPoint x="1320" y="565" as="sourcePoint" />
            <mxPoint x="1219.5" y="615" as="targetPoint" />
            <Array as="points">
              <mxPoint x="1220" y="565" />
            </Array>
          </mxGeometry>
        </mxCell>
        <mxCell id="oHkGhMjI6xXn3DW6WMqZ-71" value="rate" style="rhombus;whiteSpace=wrap;html=1;shadow=0;fontFamily=Helvetica;fontSize=12;align=center;strokeWidth=1;spacing=6;spacingTop=-4;" vertex="1" parent="WIyWlLk6GJQsqaUBKTNV-1">
          <mxGeometry x="1150" y="615" width="140" height="80" as="geometry" />
        </mxCell>
        <mxCell id="oHkGhMjI6xXn3DW6WMqZ-72" value="yes" style="text;html=1;strokeColor=none;fillColor=none;align=center;verticalAlign=middle;whiteSpace=wrap;rounded=0;" vertex="1" parent="WIyWlLk6GJQsqaUBKTNV-1">
          <mxGeometry x="1310" y="530" width="60" height="30" as="geometry" />
        </mxCell>
        <mxCell id="oHkGhMjI6xXn3DW6WMqZ-73" value="" style="rounded=0;html=1;jettySize=auto;orthogonalLoop=1;fontSize=11;endArrow=block;endFill=0;endSize=8;strokeWidth=1;shadow=0;labelBackgroundColor=none;edgeStyle=orthogonalEdgeStyle;exitX=0.5;exitY=1;exitDx=0;exitDy=0;" edge="1" parent="WIyWlLk6GJQsqaUBKTNV-1">
          <mxGeometry relative="1" as="geometry">
            <mxPoint x="1320" y="565" as="sourcePoint" />
            <mxPoint x="1430" y="618" as="targetPoint" />
            <Array as="points">
              <mxPoint x="1430" y="565" />
            </Array>
          </mxGeometry>
        </mxCell>
        <mxCell id="oHkGhMjI6xXn3DW6WMqZ-74" value="ceil" style="rhombus;whiteSpace=wrap;html=1;shadow=0;fontFamily=Helvetica;fontSize=12;align=center;strokeWidth=1;spacing=6;spacingTop=-4;" vertex="1" parent="WIyWlLk6GJQsqaUBKTNV-1">
          <mxGeometry x="1360" y="617" width="140" height="80" as="geometry" />
        </mxCell>
        <mxCell id="oHkGhMjI6xXn3DW6WMqZ-75" value="" style="endArrow=none;html=1;rounded=0;endSize=5;" edge="1" parent="WIyWlLk6GJQsqaUBKTNV-1">
          <mxGeometry width="50" height="50" relative="1" as="geometry">
            <mxPoint x="1320" y="567" as="sourcePoint" />
            <mxPoint x="1320" y="527" as="targetPoint" />
          </mxGeometry>
        </mxCell>
        <mxCell id="oHkGhMjI6xXn3DW6WMqZ-80" value="" style="rounded=0;html=1;jettySize=auto;orthogonalLoop=1;fontSize=11;endArrow=block;endFill=0;endSize=8;strokeWidth=1;shadow=0;labelBackgroundColor=none;edgeStyle=orthogonalEdgeStyle;" edge="1" parent="WIyWlLk6GJQsqaUBKTNV-1">
          <mxGeometry relative="1" as="geometry">
            <mxPoint x="500" y="696" as="sourcePoint" />
            <mxPoint x="500" y="746" as="targetPoint" />
          </mxGeometry>
        </mxCell>
        <mxCell id="oHkGhMjI6xXn3DW6WMqZ-83" value="모클래스 합산 후 루트 클래스에 반영, 계산된 합계 최대값 초과하는지 보고 overflow 플래그 설정" style="rounded=1;whiteSpace=wrap;html=1;" vertex="1" parent="WIyWlLk6GJQsqaUBKTNV-1">
          <mxGeometry x="425" y="880" width="150" height="60" as="geometry" />
        </mxCell>
        <mxCell id="oHkGhMjI6xXn3DW6WMqZ-84" value="해당 행의 상위 노드&amp;nbsp; rate값 합산하여 새로 설정" style="rounded=1;whiteSpace=wrap;html=1;" vertex="1" parent="WIyWlLk6GJQsqaUBKTNV-1">
          <mxGeometry x="640" y="746" width="150" height="60" as="geometry" />
        </mxCell>
        <mxCell id="oHkGhMjI6xXn3DW6WMqZ-85" value="" style="rounded=0;html=1;jettySize=auto;orthogonalLoop=1;fontSize=11;endArrow=block;endFill=0;endSize=8;strokeWidth=1;shadow=0;labelBackgroundColor=none;edgeStyle=orthogonalEdgeStyle;" edge="1" parent="WIyWlLk6GJQsqaUBKTNV-1">
          <mxGeometry relative="1" as="geometry">
            <mxPoint x="710" y="697" as="sourcePoint" />
            <mxPoint x="710" y="747" as="targetPoint" />
            <Array as="points">
              <mxPoint x="710" y="701" />
              <mxPoint x="710" y="701" />
            </Array>
          </mxGeometry>
        </mxCell>
        <mxCell id="oHkGhMjI6xXn3DW6WMqZ-86" value="해당 행의 상위 노드&amp;nbsp; rate값 합산하여 새로 설정" style="rhombus;whiteSpace=wrap;html=1;shadow=0;fontFamily=Helvetica;fontSize=12;align=center;strokeWidth=1;spacing=6;spacingTop=-4;" vertex="1" parent="WIyWlLk6GJQsqaUBKTNV-1">
          <mxGeometry x="430" y="747" width="140" height="80" as="geometry" />
        </mxCell>
        <mxCell id="oHkGhMjI6xXn3DW6WMqZ-87" value="" style="rounded=0;html=1;jettySize=auto;orthogonalLoop=1;fontSize=11;endArrow=block;endFill=0;endSize=8;strokeWidth=1;shadow=0;labelBackgroundColor=none;edgeStyle=orthogonalEdgeStyle;" edge="1" parent="WIyWlLk6GJQsqaUBKTNV-1">
          <mxGeometry relative="1" as="geometry">
            <mxPoint x="501" y="827" as="sourcePoint" />
            <mxPoint x="501" y="877" as="targetPoint" />
          </mxGeometry>
        </mxCell>
      </root>
    </mxGraphModel>
  </diagram>
</mxfile>
